<?xml version="1.0" encoding="UTF-8" standalone="no"?>
<!-- Created with Inkscape (http://www.inkscape.org/) -->

<svg
   version="1.1"
   id="svg1"
   width="477.15234"
   height="544.73785"
   viewBox="0 0 477.15234 544.73785"
   sodipodi:docname="3.svg"
   inkscape:version="1.4.2 (ebf0e940d0, 2025-05-08)"
   xmlns:inkscape="http://www.inkscape.org/namespaces/inkscape"
   xmlns:sodipodi="http://sodipodi.sourceforge.net/DTD/sodipodi-0.dtd"
   xmlns="http://www.w3.org/2000/svg"
   xmlns:svg="http://www.w3.org/2000/svg">
  <defs
     id="defs1">
    <inkscape:path-effect
       effect="bspline"
       id="path-effect27"
       is_visible="true"
       lpeversion="1.3"
       weight="33.333333"
       steps="2"
       helper_size="0"
       apply_no_weight="true"
       apply_with_weight="true"
       only_selected="false"
       uniform="false" />
    <inkscape:path-effect
       effect="bspline"
       id="path-effect26"
       is_visible="true"
       lpeversion="1.3"
       weight="33.333333"
       steps="2"
       helper_size="0"
       apply_no_weight="true"
       apply_with_weight="true"
       only_selected="false"
       uniform="false" />
    <inkscape:path-effect
       effect="bspline"
       id="path-effect25"
       is_visible="true"
       lpeversion="1.3"
       weight="33.333333"
       steps="2"
       helper_size="0"
       apply_no_weight="true"
       apply_with_weight="true"
       only_selected="false"
       uniform="false" />
    <inkscape:path-effect
       effect="bspline"
       id="path-effect24"
       is_visible="true"
       lpeversion="1.3"
       weight="33.333333"
       steps="2"
       helper_size="0"
       apply_no_weight="true"
       apply_with_weight="true"
       only_selected="false"
       uniform="false" />
    <inkscape:path-effect
       effect="bspline"
       id="path-effect23"
       is_visible="true"
       lpeversion="1.3"
       weight="33.333333"
       steps="2"
       helper_size="0"
       apply_no_weight="true"
       apply_with_weight="true"
       only_selected="false"
       uniform="false" />
    <inkscape:path-effect
       effect="bspline"
       id="path-effect22"
       is_visible="true"
       lpeversion="1.3"
       weight="33.333333"
       steps="2"
       helper_size="0"
       apply_no_weight="true"
       apply_with_weight="true"
       only_selected="false"
       uniform="false" />
    <inkscape:path-effect
       effect="bspline"
       id="path-effect21"
       is_visible="true"
       lpeversion="1.3"
       weight="33.333333"
       steps="2"
       helper_size="0"
       apply_no_weight="true"
       apply_with_weight="true"
       only_selected="false"
       uniform="false" />
    <inkscape:path-effect
       effect="bspline"
       id="path-effect20"
       is_visible="true"
       lpeversion="1.3"
       weight="33.333333"
       steps="2"
       helper_size="0"
       apply_no_weight="true"
       apply_with_weight="true"
       only_selected="false"
       uniform="false" />
    <inkscape:path-effect
       effect="bspline"
       id="path-effect19"
       is_visible="true"
       lpeversion="1.3"
       weight="33.333333"
       steps="2"
       helper_size="0"
       apply_no_weight="true"
       apply_with_weight="true"
       only_selected="false"
       uniform="false" />
    <inkscape:path-effect
       effect="bspline"
       id="path-effect18"
       is_visible="true"
       lpeversion="1.3"
       weight="33.333333"
       steps="2"
       helper_size="0"
       apply_no_weight="true"
       apply_with_weight="true"
       only_selected="false"
       uniform="false" />
    <inkscape:path-effect
       effect="bspline"
       id="path-effect17"
       is_visible="true"
       lpeversion="1.3"
       weight="33.333333"
       steps="2"
       helper_size="0"
       apply_no_weight="true"
       apply_with_weight="true"
       only_selected="false"
       uniform="false" />
    <inkscape:path-effect
       effect="bspline"
       id="path-effect16"
       is_visible="true"
       lpeversion="1.3"
       weight="33.333333"
       steps="2"
       helper_size="0"
       apply_no_weight="true"
       apply_with_weight="true"
       only_selected="false"
       uniform="false" />
    <inkscape:path-effect
       effect="bspline"
       id="path-effect15"
       is_visible="true"
       lpeversion="1.3"
       weight="33.333333"
       steps="2"
       helper_size="0"
       apply_no_weight="true"
       apply_with_weight="true"
       only_selected="false"
       uniform="false" />
    <inkscape:path-effect
       effect="bspline"
       id="path-effect14"
       is_visible="true"
       lpeversion="1.3"
       weight="33.333333"
       steps="2"
       helper_size="0"
       apply_no_weight="true"
       apply_with_weight="true"
       only_selected="false"
       uniform="false" />
    <inkscape:path-effect
       effect="bspline"
       id="path-effect13"
       is_visible="true"
       lpeversion="1.3"
       weight="33.333333"
       steps="2"
       helper_size="0"
       apply_no_weight="true"
       apply_with_weight="true"
       only_selected="false"
       uniform="false" />
    <inkscape:path-effect
       effect="bspline"
       id="path-effect12"
       is_visible="true"
       lpeversion="1.3"
       weight="33.333333"
       steps="2"
       helper_size="0"
       apply_no_weight="true"
       apply_with_weight="true"
       only_selected="false"
       uniform="false" />
    <inkscape:path-effect
       effect="bspline"
       id="path-effect11"
       is_visible="true"
       lpeversion="1.3"
       weight="33.333333"
       steps="2"
       helper_size="0"
       apply_no_weight="true"
       apply_with_weight="true"
       only_selected="false"
       uniform="false" />
    <inkscape:path-effect
       effect="bspline"
       id="path-effect10"
       is_visible="true"
       lpeversion="1.3"
       weight="33.333333"
       steps="2"
       helper_size="0"
       apply_no_weight="true"
       apply_with_weight="true"
       only_selected="false"
       uniform="false" />
    <inkscape:path-effect
       effect="bspline"
       id="path-effect9"
       is_visible="true"
       lpeversion="1.3"
       weight="33.333333"
       steps="2"
       helper_size="0"
       apply_no_weight="true"
       apply_with_weight="true"
       only_selected="false"
       uniform="false" />
    <inkscape:path-effect
       effect="bspline"
       id="path-effect8"
       is_visible="true"
       lpeversion="1.3"
       weight="33.333333"
       steps="2"
       helper_size="0"
       apply_no_weight="true"
       apply_with_weight="true"
       only_selected="false"
       uniform="false" />
    <inkscape:path-effect
       effect="bspline"
       id="path-effect7"
       is_visible="true"
       lpeversion="1.3"
       weight="33.333333"
       steps="2"
       helper_size="0"
       apply_no_weight="true"
       apply_with_weight="true"
       only_selected="false"
       uniform="false" />
    <inkscape:path-effect
       effect="bspline"
       id="path-effect6"
       is_visible="true"
       lpeversion="1.3"
       weight="33.333333"
       steps="2"
       helper_size="0"
       apply_no_weight="true"
       apply_with_weight="true"
       only_selected="false"
       uniform="false" />
    <inkscape:path-effect
       effect="bspline"
       id="path-effect5"
       is_visible="true"
       lpeversion="1.3"
       weight="33.333333"
       steps="2"
       helper_size="0"
       apply_no_weight="true"
       apply_with_weight="true"
       only_selected="false"
       uniform="false" />
    <inkscape:path-effect
       effect="bspline"
       id="path-effect4"
       is_visible="true"
       lpeversion="1.3"
       weight="33.333333"
       steps="2"
       helper_size="0"
       apply_no_weight="true"
       apply_with_weight="true"
       only_selected="false"
       uniform="false" />
    <inkscape:path-effect
       effect="bspline"
       id="path-effect3"
       is_visible="true"
       lpeversion="1.3"
       weight="33.333333"
       steps="2"
       helper_size="0"
       apply_no_weight="true"
       apply_with_weight="true"
       only_selected="false"
       uniform="false" />
    <inkscape:path-effect
       effect="bspline"
       id="path-effect2"
       is_visible="true"
       lpeversion="1.3"
       weight="33.333333"
       steps="2"
       helper_size="0"
       apply_no_weight="true"
       apply_with_weight="true"
       only_selected="false"
       uniform="false" />
    <inkscape:path-effect
       effect="bspline"
       id="path-effect1"
       is_visible="true"
       lpeversion="1.3"
       weight="33.333333"
       steps="2"
       helper_size="0"
       apply_no_weight="true"
       apply_with_weight="true"
       only_selected="false"
       uniform="false" />
  </defs>
  <sodipodi:namedview
     id="namedview1"
     pagecolor="#ffffff"
     bordercolor="#000000"
     borderopacity="0.25"
     inkscape:showpageshadow="2"
     inkscape:pageopacity="0.0"
     inkscape:pagecheckerboard="0"
     inkscape:deskcolor="#d1d1d1"
     showgrid="false"
     inkscape:zoom="1.15"
     inkscape:cx="298.69565"
     inkscape:cy="263.47826"
     inkscape:window-width="1920"
     inkscape:window-height="1011"
     inkscape:window-x="0"
     inkscape:window-y="0"
     inkscape:window-maximized="1"
     inkscape:current-layer="g1" />
  <g
     inkscape:groupmode="layer"
     inkscape:label="Layer 1"
     id="g1"
     transform="translate(-14.548832,-122.00862)">
    <path
       style="fill:#2a7fff;stroke:none;stroke-width:3.31087;stroke-linecap:round;stroke-dasharray:none;stroke-opacity:1;paint-order:markers fill stroke"
       d="m 307.3487,557.78098 -1.00864,-12.10375 -5.33141,-25.50432 -1.15274,-5.90778 14.55331,-28.81844 1.8732,0.86455 7.63689,11.0951 4.75504,-0.86455 12.10375,3.02593 13.68876,6.77234 16.28242,10.95101 19.45245,17.29106 18.01153,18.15562 11.23919,14.55332 28.67435,38.47262 25.50432,36.16715 15.41787,21.75792 0.14409,1.00865 -2.59366,0.57637 H 357.20461 l -132.85302,0.14409 H 98.559078 l -82.708934,-0.14409 1.008646,-77.9539 3.89049,-6.62824 14.121037,-22.91066 18.011527,-27.52161 8.213257,-7.34871 19.308357,-18.15562 12.103747,-12.53602 9.077805,-12.24784 4.17868,-7.63689 3.02594,-3.17002 9.36599,-6.77234 9.07781,-10.51873 6.19596,-13.68876 5.33142,-11.2392 1.58501,-1.15273 4.89914,1.8732 19.59654,14.40922 81.26801,64.12104 29.39481,24.0634 21.32565,17.43515 z"
       id="path7" />
    <path
       style="fill:#cccccc;stroke:none;stroke-width:3.31087;stroke-linecap:round;stroke-dasharray:none;stroke-opacity:1;paint-order:markers fill stroke"
       d="m 298.84726,517.00288 -5.76369,15.70605 -0.43227,11.38329 14.40922,12.68011 1.00864,-2.44956 -4.32276,-21.61384 -3.60231,-14.12103 z"
       id="path6" />
    <path
       style="fill:#c87137;stroke:none;stroke-width:3.31087;stroke-linecap:round;stroke-dasharray:none;stroke-opacity:1;paint-order:markers fill stroke"
       d="m 276.09524,354 -2.38095,-15.14286 -3.2381,-8.57143 -6.95238,-9.90476 -10.76191,-5.04762 3.61905,-1.71428 12.19048,-9.04762 12.47619,-12.38095 1.23809,1.14285 -1.42857,10.57143 6.19048,18.28572 13.71428,23.23809 7.80953,12.85714 9.52381,9.04762 21.14286,14.47619 11.80952,5.71429 15.52381,7.61905 c 0,0 5.04762,0.7619 5.42857,0.47619 0.38095,-0.28572 3.71429,-5.14286 3.71429,-5.14286 L 382,376.09524 l 8.38095,-14.19048 12.38095,-10.7619 7.42858,-4.95238 8.47619,2.57142 4.85714,6.38096 2.28571,6.09524 -0.19047,9.42857 -0.95238,14.66666 -0.95238,5.52381 -2.28572,-4.19047 -6.7619,-10 -2.66667,5.42857 1.2381,7.04762 4,6.38095 3.42857,7.71429 4.85714,17.90476 1.42857,12.38095 2.09524,20.7619 4.66667,9.61905 0.47619,3.90476 -2.85715,4.19048 -5.52381,7.04762 v 6.85714 l -0.85714,2.76191 -2.28571,0.28571 -16.38096,-6.47619 -5.23809,-1.42857 -23.90476,1.52381 L 354,480.09524 l -31.14286,-1.71429 -14.47619,-1.14285 -9.14285,-1.61905 -5.33334,-4.19048 -6.95238,-9.71428 -6.66667,-7.2381 -11.04761,-7.80952 -8,-6.28572 -4.95239,-13.04762 2,-7.90476 9.52381,-18.19047 6.57143,-12.76191 2.57143,-7.71429 c 0,0 -1.80952,-9.61904 -0.95238,-10.57142 0.85714,-0.95238 -0.85714,-14.66667 -0.85714,-14.66667 z"
       id="path5" />
    <path
       style="fill:#00ffff;stroke:none;stroke-width:3.31087;stroke-linecap:round;stroke-dasharray:none;stroke-opacity:1;paint-order:markers fill stroke"
       d="m 355.01882,297.55332 4.57967,-4.4542 2.63489,-1.88206 1.00376,4.32874 1.81932,3.32497 -1.50564,0.75282 -7.4655,-1.25471 z"
       id="path4" />
    <path
       id="path3"
       style="fill:#ffccaa;stroke:none;stroke-width:3.31087;stroke-linecap:round;stroke-dasharray:none;stroke-opacity:1;paint-order:markers fill stroke"
       d="m 320.5293,191.55664 -14.73438,2.48242 -10.26562,4.14063 -4.63477,4.30469 -3.97461,8.27734 -1.98633,8.77539 4.30469,8.93945 4.63672,14.73633 0.33008,13.90625 -2.98047,15.5625 -6.125,14.23828 -3.14649,7.61719 -0.49609,8.11133 1.82031,9.10742 5.63086,13.90625 10.59571,17.38477 6.78711,10.76171 4.13867,6.125 8.11328,8.44336 12.58203,8.11328 19.86914,11.0918 c 0,0 11.25844,6.45703 12.91406,6.45703 1.65563,0 6.45689,0.99414 7.11914,0.99414 0.66225,0 4.30469,-2.15234 4.30469,-2.15234 l 5.62891,-12.25195 6.62109,-13.57618 4.9668,-7.28515 8.11328,-7.78125 c 0,0 5.46411,-2.98033 6.62305,-3.64258 1.15894,-0.66225 4.13867,-5.13086 4.13867,-5.13086 l 5.96094,-3.97461 3.47656,-3.64258 -0.66211,-3.14453 -1.32422,-6.29297 -11.42383,-12.91406 -16.88867,-18.70703 -2.31836,-6.95508 2.98047,-8.60937 2.31836,-4.46875 -3.80859,-10.59571 -15.89258,-35.92773 -9.9336,-14.73633 -3.14648,-3.31055 -12.08594,-11.09179 -14.4043,-7.11914 z m 59.25586,72.72852 c 0,0 6.06443,2.56051 6.73828,3.36914 0.67386,0.80862 3.23437,4.98633 3.23437,4.98632 l -3.36914,4.58399 -2.29101,0.26953 -5.39063,-4.71875 -5.39258,-1.88672 -8.35547,4.17969 -11.99414,10.64648 -12.80273,16.30664 -1.48242,0.4043 -0.4043,-1.75195 -0.13477,-1.88672 5.66016,-11.45508 9.70313,-11.32031 9.70312,-8.49219 8.49024,-2.96484 z m -11.15039,21.2539 0.71289,2.34375 -1.01758,12.62696 -3.15625,0.30468 -8.35156,-2.03711 -2.95313,-0.20312 0.10156,-1.62891 8.96289,-7.53515 z m -147.93946,19.59375 -5.46289,3.31055 -5.29883,11.09375 -1.65625,12.74805 1.16016,9.60156 4.4707,10.92773 3.80664,6.95313 0.16602,1.16015 -15.89453,25.4961 -5.62891,10.26562 -3.64258,2.31641 -6.95312,5.13281 -7.61524,5.96094 -6.29296,3.80859 h -5.13086 l -10.76172,-3.64258 -5.46485,-1.16015 -0.16406,12.58398 v 9.60157 l 26.82031,20.69531 24.50391,19.53711 37.74805,29.63476 39.23828,32.11914 13.08008,10.92774 v -2.98047 l 4.63476,-18.70899 6.78906,-16.88671 14.56836,-27.31836 c 0,0 -4.13943,-0.32994 -5.13281,-0.99219 -0.99338,-0.66225 -11.58789,-0.82813 -11.58789,-0.82813 l -5.96094,-2.64843 -2.48437,-3.97461 -3.97266,-5.46289 -7.28515,-8.44336 -9.27149,-6.29297 -11.42383,-10.5957 -3.97265,-11.0918 1.49023,-9.4375 14.40234,-25.16602 2.98047,-8.60937 1.65625,-6.29102 -1.32422,-20.36328 L 275,344.03906 l -2.64844,-9.93359 -5.79492,-9.4375 -7.45117,-6.29102 -8.77344,-2.64843 -7.61719,-1.98633 -4.80078,-0.99414 -3.64258,-4.80078 -7.11914,-2.64844 z" />
    <path
       id="path2"
       style="display:inline;fill:#784421;stroke:none;stroke-width:3.31087;stroke-linecap:round;stroke-dasharray:none;stroke-opacity:1;paint-order:markers fill stroke"
       d="m 213.64648,123.625 -14.5625,2.44336 -14.66406,2.24023 -27.90234,13.54493 -19.04297,12.01562 -14.96875,13.33984 -15.68359,17.82227 -9.367192,15.7832 -3.972656,12.22071 -5.90625,19.85742 -1.119141,22.40234 -0.103515,24.54297 -0.40625,22.60547 6.007812,15.17383 12.933592,27.90234 14.35742,20.36719 8.35157,11.50586 6.61914,18.33008 4.27539,8.35156 4.99023,2.54492 12.11914,3.46289 10.28516,3.35938 6.41406,0.61132 7.53711,-4.68359 5.49805,-6.41602 9.67383,-5.09179 7.63867,-12.93164 15.98633,-24.94922 -3.25782,-3.87109 -6.21289,-13.54297 -1.01758,-13.23829 c 0,0 1.42666,-12.93305 1.83399,-13.13671 0.40734,-0.20367 5.70117,-8.14649 5.70117,-8.14649 l 5.29688,-2.75 6.10937,-0.61133 5.80469,3.25977 3.9707,3.35937 1.42578,0.91797 13.13672,3.76758 6.21094,-4.27734 14.9707,-10.48828 8.55274,-8.35157 4.17578,-7.9414 7.33203,-18.12696 1.93555,-10.18359 -0.7129,-10.99805 -3.1582,-13.33984 -4.68359,-11.60937 0.91601,-8.96094 3.25977,-7.33203 7.53516,-7.53516 19.34765,-4.68555 12.2207,-0.81445 10.28516,2.03711 12.32227,8.04492 4.98828,3.05469 -2.13672,-5.80469 -3.46289,-17.41211 -10.28516,-21.89453 -10.59179,-13.74805 -10.58985,-7.43359 -15.98828,-5.0918 -25.66211,-4.3789 -23.72656,-4.07227 -22.09766,-0.61133 z m 166.13868,140.66016 -8.08789,0.26953 -8.49024,2.96484 -9.70312,8.49219 -9.70313,11.32031 -5.66016,11.45508 0.13477,1.88672 0.4043,1.75195 1.48242,-0.4043 12.80273,-16.30664 11.99414,-10.64648 8.35547,-4.17969 5.39258,1.88672 5.39063,4.71875 2.29101,-0.26953 3.36914,-4.58399 c 0,0 -2.56051,-4.1777 -3.23437,-4.98632 -0.67385,-0.80863 -6.73828,-3.36914 -6.73828,-3.36914 z" />
    <path
       id="path1"
       style="baseline-shift:baseline;display:inline;overflow:visible;opacity:1;vector-effect:none;fill:#000000;stroke-linecap:round;paint-order:markers fill stroke;enable-background:accumulate;stop-color:#000000;stop-opacity:1"
       d="m 223.01953,122.06641 c -6.88627,0.14134 -13.42763,0.53901 -19.11719,1.18554 -11.3791,1.29307 -19.38235,3.60947 -29.84179,7.9375 -10.45945,4.32804 -23.56889,10.7226 -36.09571,20.0918 -12.52681,9.3692 -24.3641,21.61481 -32.10546,32.52539 -7.741371,10.9106 -11.299262,20.42883 -14.021489,28.44141 -2.722228,8.01259 -4.723321,14.8868 -5.960938,27.83007 -1.237617,12.94328 -1.744732,31.96158 -1.898437,43.5918 -0.153706,11.63021 0.05981,16.07846 1.546875,21.2832 1.487064,5.20477 4.171272,11.06436 6.61914,16.62305 2.44787,5.55871 4.719584,10.92856 8.177739,17.53516 3.45813,6.60661 8.08179,14.41531 12.6289,21.02929 4.54713,6.614 8.9617,11.97579 11.34766,15.91993 2.38597,3.94412 2.94742,6.7291 4.71875,11.57422 1.77133,4.84512 4.61524,11.3717 6.76953,15.08789 1.07715,1.85809 2.07323,3.13124 3.40234,4.02539 1.32912,0.89414 2.79487,1.33034 4.78321,1.89843 1.31387,0.3754 2.91767,0.81586 4.63476,1.28907 0.11309,3.03939 0.20225,6.04509 0.0957,8.99804 -0.10139,2.81037 -0.38142,5.63263 -0.69335,8.48047 -0.48784,-0.32638 -0.94313,-0.62495 -1.36915,-0.89648 -2.09406,-1.3347 -3.46783,-2.05312 -4.66796,-2.39844 -0.60007,-0.17266 -1.20143,-0.20481 -1.74024,-0.15039 -0.53881,0.0544 -1.0161,0.19667 -1.36719,0.37695 -2.80867,1.44227 -3.88606,4.66241 -5.06835,7.54102 -1.18228,2.87861 -2.30817,5.74417 -3.68555,9.16211 -1.37738,3.41794 -2.98679,7.31833 -5.08399,10.68359 -2.0972,3.36526 -4.75322,6.31324 -7.375,8.49805 -2.62177,2.18481 -5.31508,3.67761 -7.64843,5.41406 -2.33336,1.73645 -4.10763,3.62154 -5.5625,5.67774 -1.45487,2.05619 -2.58084,4.24768 -3.67579,6.36914 -0.10087,0.195 -0.16195,0.40812 -0.17968,0.62695 -0.912808,1.4574 -2.052184,3.16041 -4.634768,6.50976 -3.165412,4.10524 -8.455218,10.61432 -14.058594,16.36915 -5.603374,5.75483 -11.602486,10.83968 -17.753906,16.27343 -6.151421,5.43375 -12.470939,11.21976 -17.355469,17.73242 -4.884532,6.5127 -8.169436,13.51909 -13.115234,22.04688 -4.945797,8.52779 -11.62937,18.74371 -18.322266,28.97266 -0.03064,0.0493 -0.05868,0.10012 -0.08398,0.15234 -0.445473,0.30853 -0.711748,0.81554 -0.712891,1.35742 v 78.96875 H 489.54883 c 0.36768,0.0878 0.75434,0.0472 1.0957,-0.11523 0.63548,-0.24656 1.05488,-0.85743 1.05664,-1.53906 4e-5,-0.55569 -0.27872,-1.07431 -0.74219,-1.38086 -14.37095,-20.44224 -28.71874,-40.8463 -39.82617,-56.06055 -11.19331,-15.33188 -19.07927,-25.37047 -25.96289,-34.59961 -6.88362,-9.22915 -12.84529,-17.76809 -20.40234,-25.99805 -7.55706,-8.22996 -16.60208,-16.03552 -25.70703,-23.81054 -9.10495,-7.77501 -18.35881,-15.61627 -27.63477,-20.5625 -9.22315,-4.91809 -18.24018,-6.82089 -27.06055,-8.67579 -2.75432,-3.36074 -5.53031,-6.75123 -8.30859,-10.14453 0.65486,-1.29829 1.31282,-2.60029 1.9707,-3.90234 1.32531,0.0712 2.66595,0.1273 4.00782,0.16797 6.81533,0.20652 13.55061,0.004 19.83203,0.40625 6.28143,0.40201 12.29701,1.42039 19.86523,2.24414 7.56821,0.82374 16.59299,1.43945 23.49219,1.43945 6.89921,-10e-6 11.60927,-0.62336 14.29687,-1.09765 1.34381,-0.23714 2.17922,-0.42998 2.67774,-0.49415 0.49851,-0.0642 0.61263,-0.0614 1.09766,0.0879 0.97007,0.29848 3.06585,1.40315 5.42187,2.68359 2.356,1.28044 5.06012,2.74172 7.875,3.91016 1.40744,0.58421 2.83708,1.09511 4.17383,1.42578 1.33675,0.33066 2.55395,0.53972 3.80273,0.23828 1.24877,-0.30144 2.18604,-1.31358 2.55274,-2.28125 0.36669,-0.96767 0.37873,-1.89348 0.34961,-2.70899 -0.0582,-1.63105 -0.35743,-2.93976 -0.35743,-4.13476 10e-6,-1.19503 0.11471,-2.13931 1.72461,-4.11719 1.60992,-1.97788 5.06102,-4.80315 6.35352,-8.29297 1.29249,-3.4898 -0.26615,-6.7145 -1.625,-9.27539 -1.35884,-2.5609 -2.64151,-4.62236 -3.4668,-8.89453 -0.82529,-4.27216 -1.14835,-10.92412 -1.66211,-17.6543 -0.51375,-6.73017 -1.23067,-13.54396 -2.58984,-19.66015 -1.35916,-6.1162 -3.33844,-11.43448 -5.24023,-15.34375 -1.90182,-3.90928 -3.73199,-6.39045 -5.09766,-8.3125 -1.36567,-1.92206 -2.09054,-3.00197 -2.06836,-4.77149 0.0173,-1.3796 0.62131,-3.49736 1.39844,-5.79297 0.19878,0.28903 0.40767,0.60479 0.6289,0.95508 1.1675,1.84854 2.7011,4.7025 3.72657,6.59961 1.02546,1.89712 1.47305,2.72398 1.71289,3.52344 0.11991,0.39973 0.19451,0.88074 0.39062,1.44726 0.0981,0.28327 0.005,0.76218 1.02734,1.26172 0.51099,0.24977 1.32167,0.14923 1.70704,-0.0859 0.38537,-0.23523 0.52959,-0.45944 0.65429,-0.64649 0.49879,-0.7482 0.68604,-1.457 0.97071,-2.5332 0.28467,-1.07621 0.54195,-2.39196 0.67968,-3.79688 0.27547,-2.80983 0.0606,-5.72425 0.0606,-8.0332 0,-2.30897 0.1962,-4.19557 0.45313,-7.33008 0.25693,-3.13451 0.59739,-7.53582 -0.1211,-11.57031 -0.71847,-4.03449 -2.48713,-7.52731 -5.05273,-9.91797 -2.5656,-2.39065 -5.68615,-3.46901 -7.75977,-4.11328 -0.6728,-0.20904 -1.26056,-0.37689 -1.78711,-0.51563 0.78337,-0.49798 2.16997,-1.15737 3.57227,-1.90234 1.7325,-0.92039 3.5195,-2.06782 4.7793,-3.89453 1.25979,-1.8267 1.79585,-3.98418 1.9707,-5.79102 0.17485,-1.80683 -0.13067,-3.53673 -1.13867,-5.55273 -1.008,-2.016 -2.69376,-4.52735 -4.99219,-7.40039 -2.29844,-2.87304 -5.17421,-6.05247 -8.90234,-10.24024 -3.72814,-4.18776 -8.32761,-9.40089 -11.44727,-12.92968 -3.11966,-3.5288 -4.75046,-5.37604 -5.62891,-6.57813 -0.87844,-1.20209 -0.93067,-1.31602 -0.81836,-2.25195 0.11232,-0.93594 0.66905,-2.61129 1.38868,-4.14649 0.71962,-1.5352 1.63744,-3.06182 2.40429,-4.70507 0.76685,-1.64326 1.41432,-3.78615 0.78321,-6.76954 -0.63111,-2.98338 -2.29317,-6.74658 -3.60938,-10.0371 -1.31621,-3.29053 -2.32893,-6.12914 -3.11523,-8.1211 -0.7863,-1.99195 -1.30471,-3.02946 -3.08789,-7.15625 -1.78319,-4.12679 -4.86558,-11.42475 -8.33594,-18.05469 -3.47037,-6.62993 -7.31829,-12.56308 -11.80078,-17.93164 -2.02543,-2.42579 -4.17425,-4.7319 -6.36328,-6.85156 5.3e-4,-0.0883 -0.006,-0.17644 -0.0195,-0.26367 -0.2045,-1.32924 -0.41204,-2.67146 -0.82226,-5.13281 -0.41023,-2.46137 -1.04192,-6.14173 -2.7461,-12.28711 -1.70418,-6.14539 -4.48785,-14.82901 -8.67382,-22.67774 -4.18596,-7.84873 -9.69536,-14.70976 -14.83399,-19.63867 -5.13864,-4.92891 -10.05425,-7.98196 -17.57617,-10.59375 -7.52192,-2.61179 -17.69927,-4.86532 -29.50195,-6.91797 -11.80269,-2.05264 -25.26008,-3.9022 -39.40625,-4.67383 -7.07309,-0.38581 -14.30513,-0.50267 -21.19141,-0.36132 z m 21.01172,3.66601 c 13.97271,0.76216 27.30267,2.59348 39.01758,4.63086 11.7149,2.03738 21.78227,4.28246 28.98437,6.7832 7.20211,2.50075 11.48918,5.17281 16.3711,9.85547 4.88191,4.68267 10.21104,11.31973 14.20508,18.8086 3.99405,7.48887 6.73226,15.98153 8.40234,22.0039 1.67006,6.02238 2.2641,9.50061 2.67187,11.94727 0.0799,0.47928 0.15114,0.9153 0.2168,1.3164 -1.37847,-1.17224 -2.75261,-2.25654 -4.10351,-3.23632 -4.787,-3.47188 -9.31189,-5.63474 -14.1836,-6.8125 -2.43585,-0.58889 -4.953,-0.93328 -7.59766,-1.07227 -2.64463,-0.13899 -5.41564,-0.0725 -8.36132,0.16211 -5.89137,0.46923 -12.49791,1.59641 -17.4375,3.13672 -4.93959,1.54031 -8.26549,3.57364 -10.7793,6.47852 -2.51381,2.90486 -4.18903,6.5202 -5.24805,9.2207 -1.05901,2.7005 -1.52054,4.63994 -1.78906,6.73437 -0.26851,2.09443 -0.37595,4.71821 0.74609,7.91602 1.12205,3.19781 3.2223,6.65704 4.63868,11.05273 1.41638,4.3957 2.23243,9.93912 2.63476,14.51563 0.40233,4.57651 0.39916,8.176 0.20313,10.77344 -0.19604,2.59744 -0.53792,4.05828 -1.89844,7.78711 -1.36052,3.72883 -3.70757,9.55006 -5.83984,14.42382 -0.83888,1.91742 -1.66462,3.72899 -2.40039,5.5625 -0.21403,0.11059 -0.40132,0.26657 -0.54883,0.45703 -2.39058,3.09203 -4.73196,6.11885 -7.73633,9.16602 -3.00436,3.04716 -6.71909,6.15992 -10.67774,8.91992 -3.83839,2.67615 -7.95204,5.05119 -12.11328,7.4375 -3.80841,-0.99769 -7.95302,-1.78417 -12.07617,-2.57812 -0.19531,-0.0375 -0.39578,-0.0394 -0.5918,-0.006 -1.23797,-1.94462 -2.57524,-3.30284 -4.41015,-4.48242 -2.34387,-1.50678 -5.52519,-2.91009 -8.60156,-3.31641 -3.07639,-0.40633 -5.95425,0.35856 -8.7461,2.20117 -2.79185,1.84262 -5.83145,4.9197 -7.74414,10.00195 -1.91269,5.08226 -2.71492,11.92268 -2.66211,17.52149 0.0528,5.59881 1.04136,9.99822 3.19922,15.05078 1.55115,3.63197 3.72806,7.70328 6.72266,11.61914 -0.14817,0.11001 -0.27689,0.24401 -0.38086,0.39649 -4.39673,6.44173 -8.80292,12.89278 -11.86524,18.03124 -3.06232,5.13847 -4.73852,8.90912 -6.20703,11.99805 -1.4685,3.08892 -2.61855,5.29059 -5.17383,7.20703 -2.55529,1.91646 -6.98117,3.66769 -10.30078,6.25586 -3.3196,2.58818 -5.04991,5.62673 -6.95117,7.10547 -1.90126,1.47875 -4.46519,2.02528 -6.69531,1.80664 -2.23014,-0.21865 -4.42529,-1.28113 -8.95899,-2.74023 -2.6913,-0.86617 -5.78846,-1.68486 -8.95312,-2.5586 -0.21425,-0.11685 -0.45169,-0.18488 -0.69531,-0.19922 -1.89113,-0.521 -4.02979,-1.15164 -5.4336,-1.55273 -1.94829,-0.55665 -3.06592,-0.93831 -3.8457,-1.46289 -0.77978,-0.52458 -1.41885,-1.26988 -2.38672,-2.93945 -1.93573,-3.33916 -4.81827,-9.90032 -6.52344,-14.56446 -1.70516,-4.66414 -2.36979,-7.81025 -4.99414,-12.14843 -2.62434,-4.33819 -7.00219,-9.6099 -11.45312,-16.08399 -4.45093,-6.4741 -9.03121,-14.20605 -12.42383,-20.6875 -3.39263,-6.48144 -5.619918,-11.74737 -8.080079,-17.33398 -2.460159,-5.58661 -5.090871,-11.38149 -6.466797,-16.19727 -1.375926,-4.81577 -1.572973,-8.75124 -1.419922,-20.33203 0.153053,-11.5808 0.668357,-30.59884 1.884766,-43.32031 1.216409,-12.72148 3.101763,-19.1396 5.798828,-27.07813 2.697065,-7.93852 6.091894,-17.02975 13.585934,-27.59179 7.49406,-10.56204 19.17282,-22.65098 31.39063,-31.78907 12.21782,-9.13808 25.0796,-15.42263 35.37695,-19.68359 10.29736,-4.26096 17.8351,-6.44386 28.95117,-7.70703 11.11608,-1.26319 25.7812,-1.57271 39.75391,-0.81055 z m 83.80664,67.5293 c 2.46781,0.12941 4.7815,0.45046 6.99805,0.98633 4.43309,1.07172 8.49783,2.9968 13.01562,6.27343 4.51779,3.27663 9.45066,7.90122 13.76172,13.06446 4.31106,5.16323 8.02778,10.88758 11.4082,17.3457 3.38043,6.45811 6.43492,13.67858 8.23047,17.83398 1.79555,4.15542 2.29942,5.1631 3.04688,7.05665 0.74745,1.89354 1.77879,4.78096 3.12109,8.13671 0.64612,1.6153 1.35506,3.33463 1.9707,4.94336 -0.54714,-0.79225 -1.29962,-1.63463 -2.34765,-2.42968 -1.70161,-1.29088 -4.13765,-2.4917 -7.16406,-3.20704 -1.51321,-0.35766 -3.20922,-0.59131 -5.06641,-0.54882 -1.85719,0.0425 -3.87515,0.36176 -6.0293,1.10742 -4.3083,1.49132 -9.02692,4.56653 -13.44336,8.50976 -4.41644,3.94324 -8.48429,8.74476 -11.8789,13.81055 -3.39462,5.0658 -6.07451,10.24393 -7.05469,13.35742 -0.49009,1.55675 -0.68264,2.70933 -0.082,3.8418 0.30027,0.56624 0.85331,0.9929 1.33594,1.17773 0.48263,0.18484 0.88735,0.20117 1.19531,0.20118 0.61593,0 1.63916,-0.28514 2.43359,-0.94141 0.79444,-0.65627 1.61851,-1.6209 2.87696,-3.29883 2.5169,-3.35586 6.68067,-9.54264 10.61718,-14.12695 3.93652,-4.58431 7.69429,-7.64299 10.93164,-9.70313 3.23736,-2.06013 5.89517,-3.07573 8.04102,-3.38867 2.14585,-0.31294 3.72007,0.0388 4.98828,0.8711 0.45789,0.30048 0.90073,0.69432 1.31836,1.1289 -1.40675,1.404 -2.78641,2.75192 -4.33594,3.94727 -1.68205,1.29759 -3.6823,2.50432 -5.74414,3.79297 -2.06183,1.28864 -4.12539,2.62895 -6.49023,4.22265 -2.36485,1.5937 -5.11065,3.4911 -7.82617,6.04688 -2.71553,2.55578 -5.30119,5.66689 -7.85743,8.73437 -0.58589,0.70217 -0.49144,1.74639 0.21094,2.33203 0.70269,0.58542 1.74696,0.49009 2.33203,-0.21289 1.12839,-1.35405 2.25017,-2.69942 3.36719,-3.98242 3.48581,0.49839 6.92279,1.0009 9.63867,1.66797 2.78658,0.68443 4.82291,1.67713 5.41016,2.32031 0.29363,0.3216 0.3791,0.54808 0.42383,1.01563 0.0447,0.46754 -0.0231,1.16194 -0.16993,2.04297 -0.29367,1.76206 -0.88364,4.18172 -0.51757,6.74414 0.36606,2.5624 1.61939,4.75579 2.74414,6.80078 0.44078,0.80196 1.44861,1.09416 2.25,0.65234 0.8008,-0.44074 1.09283,-1.44711 0.65234,-2.24805 -1.12475,-2.04498 -2.12169,-3.94171 -2.36914,-5.67382 -0.24745,-1.73211 0.18603,-3.8115 0.50586,-5.73047 0.15991,-0.95949 0.29704,-1.90006 0.20117,-2.90235 -0.0959,-1.00228 -0.4954,-2.07931 -1.27539,-2.93359 -0.42466,-0.46512 -0.9166,-0.86596 -1.46875,-1.21875 0.41135,-0.51447 0.61383,-1.14807 0.7832,-1.73633 0.29093,-1.01039 0.44407,-2.18348 0.55078,-3.51758 0.21346,-2.66818 0.20899,-5.95848 0.20899,-9.23046 -2.2e-4,-0.0345 -0.002,-0.0691 -0.004,-0.10352 0.15088,-0.0949 0.30237,-0.18898 0.45313,-0.2832 2.02818,-1.26762 4.11696,-2.51534 6.01367,-3.97852 1.64136,-1.26619 3.04927,-2.62716 4.39258,-3.96484 0.3466,0.48334 0.64544,0.90268 1.16015,1.31445 0.58652,0.46921 1.8479,0.69204 2.61524,0.33789 0.76735,-0.35415 1.18101,-0.81767 1.64062,-1.29883 0.45961,-0.48115 0.89338,-0.99491 1.25977,-1.41015 0.73278,-0.8305 1.55942,-1.52151 1.93555,-2.83789 0.0501,-0.17551 0.0872,-0.34914 0.11132,-0.52149 0.49367,2.33366 0.11974,3.25933 -0.54492,4.6836 -0.66465,1.42426 -1.58821,2.96436 -2.40234,4.70117 -0.81414,1.73681 -1.48329,3.53592 -1.67774,5.15625 -0.19444,1.62033 0.36734,3.14319 1.43165,4.59961 1.0643,1.45642 2.70467,3.2919 5.82226,6.81836 3.11759,3.52645 7.71891,8.7407 11.45508,12.9375 3.73617,4.19679 6.58846,7.35667 8.78906,10.10742 2.2006,2.75075 3.78467,5.14746 4.61719,6.8125 0.83252,1.66503 0.93658,2.38903 0.80469,3.75195 -0.1319,1.36292 -0.61713,3.0919 -1.40235,4.23047 -0.19535,0.28327 -0.42077,0.55095 -0.67383,0.80664 -0.20615,-0.19313 -0.45828,-0.33029 -0.73242,-0.39844 -0.409,-0.10224 -0.81734,-0.20531 -1.83984,-0.46093 -1.0225,-0.25563 -2.77556,-0.7384 -4.60938,-0.60743 -1.83383,0.13098 -3.33527,0.91276 -4.83007,1.82032 -1.49481,0.90756 -3.17468,2.06383 -4.95313,3.42382 -1.77845,1.36 -3.66244,2.79634 -4.63086,3.11914 -0.9684,0.32282 -1.38781,0.11563 -2.2793,-0.65429 -0.89148,-0.76992 -1.66131,-1.79122 -2.00781,-3.74024 -0.34649,-1.949 -0.18303,-5.07441 0.0215,-8.24414 0.0584,-0.9119 -0.63307,-1.69868 -1.54493,-1.75781 -0.91264,-0.0596 -1.70064,0.63225 -1.75976,1.54492 -0.2045,3.16973 -0.448,6.38487 0.0234,9.03711 0.47151,2.65223 1.74548,4.49318 3.10351,5.66602 1.35803,1.17283 3.39112,1.98878 5.49024,1.28906 2.0991,-0.69971 3.89764,-2.33039 5.5957,-3.62891 1.69806,-1.29851 3.29,-2.39196 4.6582,-3.22265 1.36821,-0.8307 2.32042,-1.2761 3.34961,-1.34961 0.99384,-0.071 2.44373,0.23865 3.46289,0.49023 -1.39852,0.69489 -2.91724,1.32347 -4.12304,2.40235 -0.8254,0.7385 -1.2558,1.45624 -1.55469,2.00195 -0.19522,0.19913 -0.33698,0.44434 -0.41211,0.71289 -0.0263,0.0353 -0.0532,0.067 -0.0801,0.0957 -0.39653,0.42298 -1.74287,1.14499 -4.56641,3.02735 -2.82353,1.88235 -7.04553,4.96122 -10.09765,7.90625 -3.05213,2.94502 -4.82221,5.7044 -6.44141,8.68164 -1.6192,2.97723 -3.16875,6.2861 -4.86328,10.08594 -1.69453,3.79984 -3.53337,8.09253 -5.10547,11.54101 -1.5721,3.44848 -2.90666,5.75617 -4.25195,6.49609 -1.34528,0.73992 -3.65305,0.54336 -6.63281,-0.38476 -2.97977,-0.92812 -6.34572,-2.40573 -13.7793,-6.32617 -7.43358,-3.92045 -18.84752,-10.24618 -27.34961,-16.48438 -8.50208,-6.23819 -14.20907,-12.46315 -17.56445,-17.29883 -3.35538,-4.83567 -4.45704,-8.45033 -7.99805,-14.69922 -3.54101,-6.24887 -9.32563,-14.8009 -12.44141,-22.16992 -3.11577,-7.36901 -3.67878,-13.7063 -3.05078,-18.73047 0.62801,-5.02415 2.46666,-8.81163 4.62891,-13.7539 2.16224,-4.94227 4.5177,-10.77748 5.91797,-14.61524 1.40026,-3.83775 1.87492,-5.85396 2.08789,-8.67578 0.21297,-2.82182 0.21059,-6.58423 -0.20508,-11.3125 -0.41567,-4.72827 -1.23433,-10.4314 -2.7832,-15.23828 -1.54888,-4.80688 -3.74303,-8.50428 -4.66602,-11.13476 -0.92298,-2.63048 -0.82672,-4.50705 -0.58398,-6.40039 0.24273,-1.89334 0.59995,-3.43106 1.58593,-5.94532 0.98598,-2.51425 2.58248,-5.85149 4.66993,-8.26367 2.08744,-2.41217 4.69206,-4.05941 9.26171,-5.48437 4.56969,-1.42497 11.04994,-2.54506 16.7129,-2.9961 2.83147,-0.22552 5.45406,-0.28761 7.92187,-0.1582 z m 47.05664,72.75195 c 1.52981,-0.0342 2.92594,0.16765 4.22461,0.47461 2.59735,0.61393 4.66018,1.66245 5.92383,2.6211 1.26365,0.95864 1.77467,1.79339 2.16211,2.61132 0.38744,0.81794 0.39812,1.22669 0.36523,1.3418 -0.0329,0.11512 -0.4334,0.65082 -1.23437,1.55859 -0.40049,0.45389 -0.81155,0.93733 -1.16992,1.3125 -0.10486,0.10978 -0.0898,0.0857 -0.18555,0.16993 -0.12151,-0.14916 -0.13091,-0.1463 -0.30859,-0.39063 -0.80397,-1.10546 -2.10751,-3.03071 -4.11133,-4.3457 -2.00381,-1.31499 -4.51907,-1.78173 -7.28125,-1.37891 -2.76218,0.40283 -5.83061,1.6367 -9.3418,3.8711 -3.51119,2.23439 -7.52474,5.51512 -11.66602,10.33789 -4.14127,4.82276 -8.36281,11.11071 -10.7539,14.29882 -1.04858,1.3981 -1.63183,2.00689 -2.04883,2.39649 0.0321,-0.2184 -0.0198,-0.0277 0.0957,-0.39453 0.75807,-2.40799 3.39481,-7.65923 6.64649,-12.51172 3.25168,-4.8525 7.16137,-9.45806 11.33398,-13.1836 4.17261,-3.72553 8.65504,-6.58019 12.32227,-7.84961 1.83361,-0.6347 3.49754,-0.90524 5.02734,-0.93945 z m -12.85156,26.26563 c 0.29068,1.90455 0.65054,3.83959 1.44531,5.57812 0.10379,0.22704 0.21285,0.44694 0.32813,0.66016 -2.25351,-0.53416 -4.7985,-0.94689 -7.40235,-1.33008 0.5078,-0.52556 1.01399,-1.0281 1.51953,-1.50391 1.36531,-1.28498 2.75102,-2.40009 4.10938,-3.40429 z m -81.87695,3.42578 c -0.0597,0.36868 -0.11447,0.74385 -0.16211,1.125 -0.70123,5.60992 -0.0389,12.56335 3.28711,20.42969 3.32605,7.86632 9.1974,16.49252 12.60937,22.51367 3.41197,6.02114 4.5605,9.76823 8.1582,14.95312 3.5977,5.18489 9.54786,11.63921 18.32618,18.08008 8.7783,6.44087 20.26875,12.7933 27.76367,16.74609 7.49492,3.9528 11.08038,5.54203 14.33789,6.55665 3.2575,1.01463 6.47012,1.63657 9.21484,0.12695 2.74471,-1.50962 4.0703,-4.51887 5.66797,-8.02344 1.59767,-3.50457 3.4394,-7.79972 5.11914,-11.56641 1.67974,-3.76668 3.19748,-7.00247 4.74805,-9.85351 1.55057,-2.85104 3.05389,-5.20405 5.83008,-7.88281 2.77618,-2.67877 6.9368,-5.73457 9.63476,-7.53321 2.69796,-1.79864 4.00928,-2.30453 5.14649,-3.51757 0.0197,-0.021 0.0395,-0.0417 0.0586,-0.0625 0.80695,0.17342 1.71244,0.39884 3.03125,0.80859 1.94646,0.60476 4.55289,1.57145 6.48633,3.37305 1.93343,1.80159 3.43804,4.64638 4.04883,8.07617 0.61079,3.42977 0.33642,7.61791 0.082,10.7207 -0.25433,3.1028 -0.46485,5.1028 -0.46485,7.59961 0,2.49681 0.19082,5.30599 -0.0449,7.71094 -0.0405,0.41284 -0.13869,0.72808 -0.20117,1.12304 -0.26926,-0.51761 -0.35266,-0.84236 -0.73242,-1.54492 -1.01953,-1.88613 -2.55332,-4.75597 -3.83985,-6.79297 -0.95178,-1.507 -1.76329,-2.52905 -2.49414,-3.37304 0.19293,-0.23644 0.38197,-0.47662 0.56836,-0.72071 2.29243,-3.00199 3.8647,-6.38622 5.39844,-9.6582 0.38772,-0.82789 0.031,-1.81334 -0.79687,-2.20117 -0.82789,-0.38772 -1.81335,-0.031 -2.20118,0.79687 -1.53374,3.27198 -3.02916,6.43095 -5.03125,9.05274 -2.00208,2.62178 -4.71978,4.95326 -7.74804,8.08594 -3.02826,3.13268 -6.19915,6.9169 -8.98828,9.75586 -2.78913,2.83895 -5.27189,4.8261 -7.82813,6.87109 -0.7139,0.57072 -0.83017,1.61202 -0.25977,2.32617 0.57088,0.71516 1.61367,0.83152 2.32813,0.25977 2.55624,-2.045 5.18418,-4.14736 8.12109,-7.13672 2.93691,-2.98936 6.10556,-6.77306 9.00782,-9.77539 0.92731,-0.95929 1.8446,-1.85478 2.73828,-2.72657 -0.5377,1.71887 -0.93309,3.40661 -0.95313,5.00586 -0.0348,2.78005 1.2846,4.76897 2.67969,6.73243 1.39509,1.96344 3.04111,4.18457 4.82031,7.84179 1.77919,3.65723 3.68502,8.76813 4.98438,14.61524 1.29937,5.8471 2.01273,12.52871 2.52148,19.19336 0.50876,6.66464 0.79994,13.30533 1.71289,18.03125 0.91295,4.72593 2.49331,7.36898 3.79297,9.81836 1.29967,2.44936 2.19583,4.54054 1.44336,6.57226 -0.75246,2.0317 -3.84752,4.93461 -5.81641,7.35352 -1.96889,2.41891 -2.46678,4.53905 -2.46679,6.20703 0,1.66801 0.3154,3.01998 0.35937,4.25195 0.022,0.616 -0.0433,1.17144 -0.13672,1.41797 -0.0934,0.24653 -5.3e-4,0.17988 -0.23437,0.23633 -0.23384,0.0564 -1.13882,0.0357 -2.23047,-0.23438 -1.09165,-0.27004 -2.39702,-0.72899 -3.69922,-1.26953 -2.6044,-1.08106 -5.21694,-2.48394 -7.56445,-3.75976 -2.34752,-1.27583 -4.34084,-2.41993 -6.0293,-2.93946 -0.84423,-0.25977 -1.70175,-0.30902 -2.49414,-0.20703 -0.79239,0.10199 -1.56651,0.29265 -2.83008,0.51563 -2.52712,0.44597 -7.02063,1.04882 -13.7207,1.04883 -6.70006,0 -15.67018,-0.60963 -23.13281,-1.42188 -7.46265,-0.81225 -13.51183,-1.83987 -20.01172,-2.25586 -6.49988,-0.416 -13.26161,-0.20768 -19.94336,-0.41016 -6.68174,-0.20247 -13.38896,-0.81714 -17.95117,-1.66015 -4.5622,-0.84301 -6.8263,-1.87123 -8.28125,-3.32617 -1.45496,-1.45494 -2.39052,-3.81069 -4.36328,-7.00977 -1.97276,-3.19909 -4.99402,-7.0687 -10.2168,-11.07812 -5.22278,-4.00943 -12.39733,-8.09266 -16.7168,-12.74805 -4.31947,-4.6554 -6.15416,-10.2092 -6.57226,-13.69336 -0.41812,-3.48415 0.39156,-4.71998 2.29492,-8.57813 1.90336,-3.85815 4.6561,-9.66875 7.33984,-14.73242 2.68374,-5.06365 5.32983,-9.4393 7.30664,-13.13281 1.97681,-3.69352 3.35233,-6.90305 3.51758,-11.19922 0.16524,-4.29617 -0.77103,-9.35932 -0.9707,-15.09961 -0.19967,-5.74029 0.32601,-12.45997 -0.62891,-19.14453 -0.95492,-6.68457 -3.36766,-13.08178 -6.18164,-18.01953 -2.81398,-4.93777 -6.22479,-8.57472 -11.63281,-11.03711 -1.03933,-0.47323 -2.14402,-0.90539 -3.30274,-1.30469 3.2628,-1.89235 6.51336,-3.84835 9.63868,-6.02734 4.11913,-2.8719 7.97112,-6.09784 11.14062,-9.3125 1.31199,-1.33068 2.49956,-2.65226 3.60938,-3.96289 z m 72.95703,7.95898 c -0.6695,0.0203 -1.26082,0.44197 -1.49805,1.06836 -0.32412,0.85486 0.1061,1.81061 0.96094,2.13477 2.96523,1.12474 5.93744,2.25616 8.23633,2.95117 2.29888,0.69501 3.87515,0.92441 5.30664,1.12891 0.90566,0.12933 1.74452,-0.50047 1.87304,-1.40625 0.12939,-0.905 -0.4993,-1.74356 -1.40429,-1.87305 -1.43149,-0.2045 -2.71854,-0.38334 -4.81641,-1.01758 -2.09786,-0.63424 -5.05626,-1.75416 -8.02148,-2.87891 -0.20313,-0.0772 -0.41949,-0.11375 -0.63672,-0.10742 z m -129.50391,2.85352 c 0.53698,-0.0237 1.09006,0.005 1.67578,0.082 2.34291,0.30945 5.29546,1.56632 7.2461,2.82031 1.95064,1.25399 2.87212,2.31833 4.2871,5.00196 1.415,2.68362 3.1563,6.86636 4.89454,11.05859 0.35042,0.84368 1.31804,1.24402 2.16211,0.89453 0.84444,-0.34966 1.24575,-1.3175 0.89648,-2.16211 -1.39508,-3.36461 -2.78838,-6.73537 -4.08594,-9.45508 6.44412,1.2559 12.66364,2.5877 17.01367,4.56836 4.7965,2.18395 7.52166,5.09249 10.12696,9.66406 2.60529,4.57157 4.89569,10.64865 5.78125,16.84766 0.88556,6.199 0.38831,12.77251 0.59765,18.79102 0.20935,6.01849 1.11222,11.17807 0.97071,14.85742 -0.14153,3.67935 -1.21824,6.19739 -3.12696,9.76367 -1.90872,3.56629 -4.57891,7.98313 -7.31445,13.14453 -2.73554,5.16141 -5.50486,11.00775 -7.38476,14.81836 -1.8799,3.8106 -3.11547,6.25283 -2.61329,10.4375 0.50218,4.18468 2.55242,10.28788 7.43555,15.55078 4.88313,5.26289 12.22698,9.36143 17.12695,13.12305 4.89999,3.76162 7.60554,7.25352 9.41602,10.18945 1.81049,2.93594 2.716,5.48751 4.83984,7.61133 2.12383,2.12381 5.17465,3.34499 10.01953,4.24023 3.01714,0.55752 6.78912,1.00584 10.85157,1.31446 -6.41168,13.38278 -13.08994,26.69858 -19.03516,40.32812 -3.59471,9.41284 -4.40231,15.40541 -4.78711,20.70313 -2.58565,-2.1315 -5.22433,-4.3012 -7.91601,-6.50977 -37.89712,-31.09508 -86.46329,-69.94795 -112.04883,-89.85351 -9.0651,-7.05265 -15.2346,-11.7223 -19.55078,-14.79493 0.0101,-0.0497 0.0179,-0.0999 0.0234,-0.15039 0.37921,-3.4 0.76406,-6.84171 0.89063,-10.34961 0.099,-2.74387 0.0378,-5.47754 -0.0566,-8.18945 2.49342,0.69738 4.98639,1.4157 6.99609,2.0625 4.36215,1.4039 6.66575,2.59019 9.65039,2.88281 2.98465,0.29262 6.35077,-0.38828 9.05078,-2.48828 2.70003,-2.1 4.24192,-4.99206 6.95508,-7.10742 2.71316,-2.11535 7.07923,-3.83873 10.25,-6.2168 3.17077,-2.37806 4.68098,-5.28915 6.17774,-8.4375 1.49675,-3.14835 3.09206,-6.73836 6.0625,-11.72265 2.91986,-4.89944 7.20817,-11.19991 11.52929,-17.53125 0.56589,0.64095 1.15609,1.27468 1.77149,1.89648 5.0974,5.15053 11.74663,9.39291 17.14844,12.35352 5.40181,2.96061 9.63888,4.67937 13.39257,5.34179 3.7537,0.66243 7.06531,0.33542 9.33789,-1.45507 2.2726,-1.7905 2.86528,-4.91189 2.07227,-8.36719 -0.79301,-3.45531 -2.78382,-7.46149 -4.72656,-11.44922 -0.40024,-0.8219 -1.39093,-1.16378 -2.21289,-0.76367 -0.8219,0.40024 -1.16379,1.39093 -0.76368,2.21289 1.94274,3.98773 3.83809,7.95828 4.47657,10.74023 0.63847,2.78198 0.20717,4.1574 -0.89453,5.02539 -1.10172,0.86801 -3.51354,1.35953 -6.7129,0.79493 -3.19935,-0.5646 -7.14468,-2.11669 -12.37695,-4.98438 -5.23227,-2.86769 -11.66811,-7.00956 -16.38672,-11.77734 -4.71861,-4.76779 -7.89725,-10.31662 -9.93164,-15.08008 -2.03439,-4.76347 -2.88417,-8.54148 -2.93359,-13.78125 -0.0494,-5.23977 0.78313,-11.89722 2.44922,-16.32422 1.66609,-4.42701 4.14808,-6.87266 6.46875,-8.4043 1.7405,-1.14872 3.20351,-1.6946 4.81445,-1.76562 z m 1.29492,4.20898 c -0.63826,0.009 -1.28047,0.12409 -1.89453,0.33985 -2.45622,0.86301 -4.90528,3.10679 -6.74609,6.62109 -1.84081,3.5143 -2.97708,8.16066 -3.40235,12.73242 -0.42526,4.57176 -0.11449,9.00069 0.64258,12.51563 0.75707,3.51494 2.00327,6.13137 3.63672,8.47265 1.63345,2.34127 3.72,4.57146 6.33008,6.02149 2.61008,1.45004 5.58207,1.99157 9.29492,2.09765 3.71284,0.10607 8.23736,-0.20692 12.73633,-0.51367 0.91196,-0.0622 1.60094,-0.8517 1.53906,-1.76367 -0.0622,-0.91196 -0.8517,-1.60094 -1.76367,-1.53906 -4.49897,0.30675 -8.97325,0.60622 -12.41797,0.50781 -3.44471,-0.0984 -5.79005,-0.57737 -7.78125,-1.68359 -1.9912,-1.10621 -3.78859,-2.966 -5.22266,-5.02149 -1.43406,-2.0555 -2.43883,-4.14405 -3.11328,-7.27539 -0.67444,-3.13132 -0.97669,-7.28993 -0.58398,-11.51172 0.39271,-4.22177 1.50561,-8.57443 3.03906,-11.50195 1.53345,-2.9275 3.58312,-4.56889 4.91016,-5.03516 0.66352,-0.23313 1.03925,-0.22707 1.5625,-0.041 0.52324,0.18604 1.22209,0.64954 2.10156,1.50586 1.75892,1.71263 4.12092,4.86151 6.47266,8.03125 0.54448,0.73357 1.58028,0.88741 2.31445,0.34375 0.73481,-0.5446 0.88875,-1.58189 0.34375,-2.31641 -2.35174,-3.16974 -4.69372,-6.36101 -6.82031,-8.43164 -1.0633,-1.03531 -2.10248,-1.82451 -3.30469,-2.25195 -0.6011,-0.21373 -1.23478,-0.31131 -1.87305,-0.30274 z m 16.12696,17.98633 c -0.76528,0.0284 -1.42076,0.58363 -1.56446,1.34961 -0.61349,3.27198 -1.23714,6.57732 -1.5039,9.51172 -0.26676,2.9344 -0.20467,5.72301 1.32226,8.14062 1.52693,2.4176 4.07404,3.97798 6.42578,5.51172 0.76585,0.49948 1.79162,0.28349 2.29102,-0.48242 0.49948,-0.76585 0.28349,-1.79162 -0.48242,-2.29102 -2.35174,-1.53374 -4.50648,-3.0399 -5.4336,-4.50781 -0.9271,-1.4679 -1.07065,-3.3829 -0.82617,-6.07226 0.24449,-2.68936 0.84744,-5.92724 1.46094,-9.19922 0.16945,-0.89856 -0.42171,-1.76433 -1.32031,-1.9336 -0.071,-0.0131 -0.14276,-0.0216 -0.21485,-0.0254 -0.0519,-0.003 -0.10328,-0.004 -0.15429,-0.002 z m -100.46094,98.4707 c 0.0632,-0.003 0.17157,0.0314 0.47656,0.11914 0.61002,0.17553 1.82791,0.74788 3.80469,2.00782 3.95356,2.51986 10.98381,7.71525 23.7539,17.65039 25.54018,19.87027 74.11017,58.72575 111.98047,89.79883 37.8703,31.07307 65.04935,54.37033 86.39649,73.52148 21.34713,19.15115 36.86924,34.16243 45.49023,42.73242 5.7279,5.69401 8.37322,8.50305 10.01367,10.37695 h -4.64257 c -3.15137,-2.54142 -6.32218,-5.09915 -10.85743,-8.61523 -4.56196,-3.5368 -10.73974,-8.19613 -26.79687,-15.04101 -16.05713,-6.84488 -42.00113,-15.93193 -63.86524,-25.05469 -21.8641,-9.12277 -39.68146,-18.28757 -54.58203,-27.39063 -14.90056,-9.10306 -26.88986,-18.14475 -40.66797,-29.32031 -13.7781,-11.17556 -29.32379,-24.47192 -45.40039,-37.47656 -16.07659,-13.00464 -32.65181,-25.69385 -44.15625,-33.8086 -11.00153,-7.76002 -17.37679,-11.33399 -23.45703,-14.67187 1.07348,-1.31695 2.32533,-2.53152 3.91016,-3.71094 2.0634,-1.53556 4.89127,-3.10894 7.79101,-5.52539 2.89975,-2.41645 5.76487,-5.60295 8.06446,-9.29297 2.29959,-3.69002 3.96231,-7.76442 5.3457,-11.19726 1.38339,-3.43285 2.50826,-6.29321 3.67774,-9.14063 1.16946,-2.84741 2.54297,-5.35305 3.51757,-5.85351 0.12183,-0.0626 0.13991,-0.10405 0.20313,-0.10743 z m -34.42383,47.55274 c 6.16772,3.38344 12.36863,6.82887 23.46289,14.65429 11.39978,8.04094 27.95237,20.70879 43.98242,33.67579 16.03005,12.96699 31.56699,26.2554 45.39649,37.47265 13.8295,11.21726 25.9704,20.37444 41.02929,29.57422 15.0589,9.19979 33.0298,18.44102 55.03125,27.6211 22.00145,9.18007 47.99697,18.29249 63.8418,25.04687 15.84483,6.75439 21.5281,11.09287 26.06641,14.61133 3.00717,2.3314 5.40758,4.23516 7.60742,5.99804 H 230.44727 c -1.66881,-5.08271 -3.63735,-10.70604 -10.3086,-23.95117 -7.03087,-13.95912 -19.30427,-36.46219 -30.47851,-55.01757 -11.17424,-18.55539 -21.28001,-33.24121 -34.10547,-43.87696 -12.82547,-10.63575 -28.12489,-17.0199 -43.25781,-23.35937 -0.40502,-0.17005 -0.86101,-0.17202 -1.26758,-0.006 -0.40668,0.16626 -0.7306,0.48736 -0.90039,0.89258 -0.35276,0.84353 0.0451,1.81331 0.88867,2.16601 15.13293,6.33947 30.09542,12.63191 42.42383,22.85547 12.32841,10.22356 22.26426,24.57744 33.38086,43.03711 11.11659,18.45967 23.38202,40.94597 30.35937,54.79883 6.172,12.25391 8.19207,17.68926 9.7793,22.46093 H 17.859375 V 588.3418 c 0.09803,-0.0914 0.184605,-0.19437 0.257813,-0.30664 6.692896,-10.22895 13.394913,-20.47073 18.414062,-29.125 2.316231,-3.99377 4.257247,-7.61405 6.130859,-10.96094 0.548905,0.0953 1.108944,-0.0919 1.490235,-0.49805 4.703478,-5.01023 9.349274,-9.94083 14.376953,-13.53906 5.027686,-3.59823 10.600713,-5.993 15.488281,-7.53906 4.887571,-1.54606 9.076615,-2.24519 13.371094,-2.96094 0.901713,-0.15004 1.511146,-1.00255 1.361328,-1.9043 -0.15001,-0.90261 -1.003809,-1.51234 -1.90625,-1.36133 -4.294479,0.71575 -8.693205,1.44663 -13.826172,3.07032 -5.132969,1.62368 -11.012186,4.13787 -16.414062,8.0039 -2.584407,1.84962 -5.02232,3.97928 -7.376954,6.2461 0.06856,-0.0926 0.137872,-0.18513 0.207032,-0.27735 4.624796,-6.16636 10.779798,-11.83153 16.898437,-17.23633 6.11864,-5.4048 12.185217,-10.54551 17.931641,-16.44726 5.746422,-5.90174 11.089794,-12.47924 14.310547,-16.65625 3.220751,-4.177 4.360511,-6.02348 5.429691,-7.76172 0.17042,-0.27725 0.25534,-0.59858 0.24414,-0.92383 0.61821,-1.18543 1.23989,-2.33851 1.9082,-3.42773 z m 208.27148,12.3125 c 12.85877,15.70505 25.63435,31.29915 36.29688,44.02539 11.10398,13.25313 19.81849,23.28846 27.60351,36.5332 7.78506,13.24475 14.71837,29.84577 20.00196,44.20703 4.53526,12.32727 7.85889,23.0006 11.01953,33.4668 -9.10932,-8.89499 -22.68533,-21.79993 -40.14649,-37.46484 -16.02325,-14.37494 -35.31322,-31.06914 -59.91015,-51.60938 -0.009,-2.38319 -0.10144,-5.11571 -1.05274,-9.91992 -1.04272,-5.26574 -3.0874,-13.03011 -4.4082,-18.73828 -1.32079,-5.70818 -1.92809,-9.3824 -2.54492,-13.11524 -6.3e-4,-0.005 -9.5e-4,-0.0104 -0.002,-0.0156 3.45725,-7.92154 8.16882,-17.47677 13.14257,-27.36914 z m 13.30274,11.01367 c 7.41895,1.62241 14.73342,3.54646 22.13672,7.49414 8.7953,4.68993 17.94733,12.39114 27.04297,20.1582 9.09564,7.76706 18.04648,15.50337 25.41796,23.53125 7.37152,8.02788 13.26924,16.46203 20.18946,25.74024 6.92022,9.27822 14.77901,19.28078 25.9414,34.57031 10.68307,14.63297 24.40544,34.12761 38.25977,53.83398 h -59.90234 c -1.68153,-2.07241 -3.72835,-4.50383 -11.99805,-12.7246 -0.21979,-0.21849 -0.44321,-0.44122 -0.67188,-0.66797 0.002,-0.16863 -0.0216,-0.33658 -0.0703,-0.49805 -3.65238,-12.15959 -7.31684,-24.36291 -12.63867,-38.82812 -5.32183,-14.46524 -12.29435,-31.19724 -20.25586,-44.74219 -7.96151,-13.54496 -16.83363,-23.75274 -27.91797,-36.98242 -7.66182,-9.14476 -16.42684,-19.78326 -25.5332,-30.88477 z m -28.82422,22.06445 c 0.42573,2.32429 0.95078,4.9334 1.69922,8.16797 1.34106,5.79579 3.38444,13.57327 4.38672,18.63477 0.5602,2.82905 0.80395,4.80837 0.91015,6.44922 -3.913,-3.25926 -7.95702,-6.61471 -12.14062,-10.07032 0.3562,-5.92502 0.70755,-11.58188 4.73242,-22.12109 0.13305,-0.34839 0.27102,-0.70167 0.41211,-1.06055 z"
       sodipodi:nodetypes="ssssssssssssssssscscssssssssssccsssssccccccccssssscccscssssssssssssssssssssscsssssssssssssscsssssssssssssssssccssssssssssssssscssssssssssssssccsscccssssssccsssssssccssssssssssssssssssssssssscsssssssssssssssscssssccccsssssccssssscssccsscssssscssssssssssccssssssscccsssssscsccssssssssssssssssssssssssssssssssscssssssccsssscsccsccsssssssssssssscsssssscsscscscssscccsscssssssssssssssssssssssssssssssssssssscssccccssccsccscsscsccssssssssssssssccccsccscssssssscssssscccsssssssssscssssssssccssssssssscccsscscsssccsscccscssssssccssssssscssssssccsssssssccssscsccsssccccscssscscssccsssscccssscscssccccsssssccsccsssccssccsc" />
  </g>
</svg>
